<svg xmlns="http://www.w3.org/2000/svg" viewBox="0 0 1600 1000" role="img" aria-labelledby="title desc">
<title id="title">Career Care Center 2026/27 Executive Committee</title>
<desc id="desc">Executive committee for the 2026/27 term: Favor Cletus, Prisca Ohale, Ogechi Eze, Christiana Aso, and Emeka Chilaka.</desc>
<defs>
<linearGradient id="bg" x1="0" y1="0" x2="1" y2="1"><stop offset="0" stop-color="#0D2175"/><stop offset="1" stop-color="#07143f"/></linearGradient>
<linearGradient id="gold" x1="0" y1="0" x2="1" y2="0"><stop offset="0" stop-color="#F6C453"/><stop offset="1" stop-color="#FFE49A"/></linearGradient>
</defs>
<rect width="1600" height="1000" rx="42" fill="url(#bg)"/>
<circle cx="1400" cy="80" r="260" fill="#CB101D" opacity=".12"/>
<circle cx="130" cy="900" r="260" fill="#F6C453" opacity=".08"/>
<text x="800" y="105" text-anchor="middle" fill="#FFE49A" font-family="Arial,sans-serif" font-size="28" font-weight="700" letter-spacing="5">CAREER CARE CENTER</text>
<text x="800" y="175" text-anchor="middle" fill="white" font-family="Arial,sans-serif" font-size="58" font-weight="800">2026/27 EXECUTIVE COMMITTEE</text>
<rect x="430" y="205" width="740" height="4" rx="2" fill="url(#gold)"/>
<text x="800" y="250" text-anchor="middle" fill="#dbe5ff" font-family="Arial,sans-serif" font-size="24">Meet the team carrying our mission forward</text>
<g font-family="Arial,sans-serif">
<rect x="100" y="315" width="660" height="135" rx="24" fill="white" opacity=".98"/>
<circle cx="165" cy="382" r="43" fill="#0D2175"/><text x="165" y="394" text-anchor="middle" fill="white" font-size="28" font-weight="800">FC</text>
<text x="235" y="365" fill="#0D2175" font-size="30" font-weight="800">Favor Cletus</text><text x="235" y="405" fill="#CB101D" font-size="22" font-weight="700">President</text>
<rect x="840" y="315" width="660" height="135" rx="24" fill="white" opacity=".98"/>
<circle cx="905" cy="382" r="43" fill="#0D2175"/><text x="905" y="394" text-anchor="middle" fill="white" font-size="28" font-weight="800">PO</text>
<text x="975" y="365" fill="#0D2175" font-size="30" font-weight="800">Prisca Ohale</text><text x="975" y="405" fill="#CB101D" font-size="22" font-weight="700">Vice President</text>
<rect x="100" y="490" width="660" height="135" rx="24" fill="white" opacity=".98"/>
<circle cx="165" cy="557" r="43" fill="#0D2175"/><text x="165" y="569" text-anchor="middle" fill="white" font-size="28" font-weight="800">OE</text>
<text x="235" y="540" fill="#0D2175" font-size="30" font-weight="800">Ogechi Eze</text><text x="235" y="580" fill="#CB101D" font-size="22" font-weight="700">Secretary-General</text>
<rect x="840" y="490" width="660" height="135" rx="24" fill="white" opacity=".98"/>
<circle cx="905" cy="557" r="43" fill="#0D2175"/><text x="905" y="569" text-anchor="middle" fill="white" font-size="28" font-weight="800">CA</text>
<text x="975" y="540" fill="#0D2175" font-size="30" font-weight="800">Christiana Aso</text><text x="975" y="580" fill="#CB101D" font-size="22" font-weight="700">Financial Secretary / Treasurer</text>
<rect x="470" y="665" width="660" height="135" rx="24" fill="white" opacity=".98"/>
<circle cx="535" cy="732" r="43" fill="#0D2175"/><text x="535" y="744" text-anchor="middle" fill="white" font-size="28" font-weight="800">EC</text>
<text x="605" y="715" fill="#0D2175" font-size="30" font-weight="800">Emeka Chilaka</text><text x="605" y="755" fill="#CB101D" font-size="22" font-weight="700">Media / Publicity Secretary</text>
</g>
<text x="800" y="885" text-anchor="middle" fill="#FFE49A" font-family="Arial,sans-serif" font-size="24" font-weight="700">INAUGURATION — SUNDAY, 4 OCTOBER 2026</text>
<text x="800" y="930" text-anchor="middle" fill="#cbd6f5" font-family="Arial,sans-serif" font-size="19">Career Care Center • Skills • Confidence • Opportunity</text>
</svg>